<svg id="Layer_1" data-name="Layer 1" xmlns="http://www.w3.org/2000/svg" xmlns:xlink="http://www.w3.org/1999/xlink" viewBox="0 0 230.49 300"><defs><style>.cls-1{fill:#5ce706;}.cls-2{clip-path:url(#clip-path);}.cls-3{fill:#243747;}</style><clipPath id="clip-path"><path class="cls-1" d="M161.52,265.17A34.46,34.46,0,1,0,196,230.71a34.45,34.45,0,0,0-34.45,34.46"/></clipPath></defs><path class="cls-1" d="M161.52,265.17A34.46,34.46,0,1,0,196,230.71a34.45,34.45,0,0,0-34.45,34.46"/><g class="cls-2"><rect class="cls-1" x="148.9" y="218.1" width="94.14" height="94.14" transform="translate(-131.65 302.3) rotate(-60)"/></g><path class="cls-3" d="M140.73,102.35V46.2H92V.07H29.56V46.2H.37v56.15H29.56V238.13a62.4,62.4,0,0,0,62.23,58.26h48.94V234l-25,0A23.86,23.86,0,0,1,92,210.24V102.35Z"/></svg>